<?xml version="1.0" encoding="UTF-8" standalone="no"?>
<!-- Created with Inkscape (http://www.inkscape.org/) -->

<svg
   xmlns:dc="http://purl.org/dc/elements/1.1/"
   xmlns:cc="http://creativecommons.org/ns#"
   xmlns:rdf="http://www.w3.org/1999/02/22-rdf-syntax-ns#"
   xmlns:svg="http://www.w3.org/2000/svg"
   xmlns="http://www.w3.org/2000/svg"
   xmlns:sodipodi="http://sodipodi.sourceforge.net/DTD/sodipodi-0.dtd"
   xmlns:inkscape="http://www.inkscape.org/namespaces/inkscape"
   width="160.41"
   height="254.06372"
   id="svg2"
   version="1.1"
   inkscape:version="0.48.5 r10040"
   sodipodi:docname="logo.svg">
  <defs
     id="defs4">
    <filter
       inkscape:label="Soft focus lens"
       inkscape:menu="Image effects"
       inkscape:menu-tooltip="Glowing image content without blurring it"
       height="1"
       y="0"
       width="1"
       x="0"
       color-interpolation-filters="sRGB"
       id="filter3163">
      <feGaussianBlur
         stdDeviation="5"
         result="result3"
         id="feGaussianBlur3165" />
      <feComposite
         in2="result3"
         operator="arithmetic"
         in="result3"
         k1="0.5"
         k3="0.5"
         result="result1"
         id="feComposite3167" />
      <feBlend
         in2="result1"
         result="result5"
         mode="screen"
         in="SourceGraphic"
         id="feBlend3169" />
      <feBlend
         mode="darken"
         in="result5"
         result="result6"
         in2="result5"
         id="feBlend3171" />
      <feComposite
         operator="in"
         in2="SourceGraphic"
         id="feComposite3173" />
    </filter>
  </defs>
  <sodipodi:namedview
     id="base"
     pagecolor="#ffffff"
     bordercolor="#666666"
     borderopacity="1.0"
     inkscape:pageopacity="0.0"
     inkscape:pageshadow="2"
     inkscape:zoom="0.98994949"
     inkscape:cx="-171.64921"
     inkscape:cy="39.141016"
     inkscape:document-units="px"
     inkscape:current-layer="layer1"
     showgrid="false"
     inkscape:window-width="1495"
     inkscape:window-height="1064"
     inkscape:window-x="0"
     inkscape:window-y="14"
     inkscape:window-maximized="0"
     fit-margin-top="0"
     fit-margin-left="0"
     fit-margin-right="0"
     fit-margin-bottom="0" />
  <metadata
     id="metadata7">
    <rdf:RDF>
      <cc:Work
         rdf:about="">
        <dc:format>image/svg+xml</dc:format>
        <dc:type
           rdf:resource="http://purl.org/dc/dcmitype/StillImage" />
        <dc:title />
      </cc:Work>
    </rdf:RDF>
  </metadata>
  <g
     inkscape:label="Layer 1"
     inkscape:groupmode="layer"
     id="layer1"
     transform="translate(-231.2178,-298.90504)">
    <path
       style="font-size:medium;font-style:normal;font-variant:normal;font-weight:normal;font-stretch:normal;text-indent:0;text-align:start;text-decoration:none;line-height:normal;letter-spacing:normal;word-spacing:normal;text-transform:none;direction:ltr;block-progression:tb;writing-mode:lr-tb;text-anchor:start;baseline-shift:baseline;color:#000000;fill:#28b0ac;fill-opacity:1;fill-rule:nonzero;stroke:none;stroke-width:26.20000076000000178;marker:none;visibility:visible;display:inline;overflow:visible;enable-background:accumulate;font-family:Sans;-inkscape-font-specification:Sans;filter:url(#filter3163)"
       d="M 310.25,298.90625 280.21875,330 c 9.82502,-3.17888 20.31226,-4.90625 31.21875,-4.90625 10.6988,0 20.99531,1.65512 30.65625,4.71875 L 311.1875,298.90625 c -0.31234,6.1e-4 -0.62569,-0.003 -0.9375,0 z m 1.1875,46.8125 c -2.27237,0 -4.5245,0.0944 -6.75,0.28125 l -32.5,33.8125 c 8.31922,-7.07092 18.58078,-11.9183 29.90625,-13.65625 l 16.125,-13.78125 -13.65625,13.46875 c 2.25371,-0.25209 4.55173,-0.40625 6.875,-0.40625 33.53384,0 60.5,26.96616 60.5,60.5 0,0.27253 -0.0277,0.54085 -0.0312,0.8125 l 10.25,-9.03125 -10.28125,10.34375 c -0.30029,8.78175 -2.43556,17.07121 -6.0625,24.5 l 21.34375,-18.78125 -24.4375,24.375 c -4.8748,7.76942 -11.46095,14.34091 -19.25,19.1875 l -28.84375,28.75 c 4.63569,-0.18261 9.15832,-0.7759 13.5625,-1.71875 l 57.03125,-47 c 4.13212,-9.65725 6.40625,-20.29779 6.40625,-31.4375 0,-44.18051 -36.00699,-80.21875 -80.1875,-80.21875 z m -7.25,0.34375 c -34.88504,3.14982 -63.44363,28.79513 -71,62.25 l 71,-62.25 z m 7.25,35.28125 c -0.84134,0 -1.66986,0.016 -2.5,0.0625 L 266.875,426.875 c 0.0867,4.13123 0.72842,8.11909 1.875,11.90625 L 281.0625,427.625 c -0.0304,-0.56122 -0.0312,-1.11829 -0.0312,-1.6875 0,-16.87355 13.5327,-30.40625 30.40625,-30.40625 1.57129,0 3.11988,0.11728 4.625,0.34375 0.0102,0.002 0.0211,-0.002 0.0312,0 L 328.375,384.71875 c -5.22989,-2.16311 -10.94491,-3.375 -16.9375,-3.375 z m -3.25,0.125 c -21.60285,1.57765 -39.07036,18.69373 -41.15625,40.15625 L 308.1875,381.46875 z M 329.03125,385 318.125,396.28125 c 5.01873,1.11397 9.5487,3.44309 13.28125,6.6875 4.58279,-4.16878 7.94375,-7.27015 10.40625,-9.59375 -3.72608,-3.47915 -8.0413,-6.32443 -12.78125,-8.375 z m -65.34375,3.6875 -32.40625,33.71875 c -0.051,1.16959 -0.0625,2.34947 -0.0625,3.53125 0,0.24051 -0.002,0.47873 0,0.71875 L 253.8125,407.375 c 2.19243,-6.84745 5.55612,-13.15599 9.875,-18.6875 z m 78.21875,4.78125 -9.71875,10.1875 c 3.2351,3.0124 5.79599,6.72442 7.46875,10.90625 l 11,-9.78125 c -2.29626,-4.23183 -5.26596,-8.04016 -8.75,-11.3125 z m 8.8125,11.4375 -10.5625,11 c 1.08459,3.13577 1.6875,6.51247 1.6875,10.03125 0,3.3361 -0.55203,6.5351 -1.53125,9.53125 L 355.875,422.3125 c -0.50933,-6.24454 -2.32251,-12.14453 -5.15625,-17.40625 z M 311.4375,405.375 c -0.74913,0 -1.48952,0.0455 -2.21875,0.125 l -18.28125,18.9375 c -0.0361,0.49402 -0.0625,0.99733 -0.0625,1.5 0,3.92464 1.1583,7.5868 3.09375,10.71875 2.85023,-2.54656 5.24393,-4.68591 7.96875,-7.125 -0.41749,-1.11945 -0.65625,-2.3162 -0.65625,-3.59375 0,-5.67123 4.48502,-10.15625 10.15625,-10.15625 1.66391,0 3.21737,0.40492 4.59375,1.09375 2.70479,-2.43273 5.52007,-4.97251 7.9375,-7.15625 -3.48035,-2.69914 -7.82191,-4.34375 -12.53125,-4.34375 z m -7.40625,1.40625 c -4.73209,1.85004 -8.61462,5.40948 -10.90625,9.90625 l 10.90625,-9.90625 z m 21.3125,4.0625 -7.15625,7.46875 c 2.101,1.85138 3.40625,4.55855 3.40625,7.625 0,5.67123 -4.48502,10.15625 -10.15625,10.15625 -2.89361,0 -5.47468,-1.1655 -7.3125,-3.0625 L 296.96875,440.5 c 2.2366,2.22216 4.98213,3.92065 8.03125,4.9375 l 26.59375,-23.65625 c -0.8896,-4.27526 -3.14234,-8.07131 -6.25,-10.9375 z m -73.9375,7.40625 -19.375,19.0625 c 0.73715,5.15324 1.98274,10.14429 3.65625,14.9375 l 16.125,-15.75 c -0.59896,-3.42884 -0.90625,-6.95639 -0.90625,-10.5625 0,-2.60387 0.18402,-5.17238 0.5,-7.6875 z m 104.5,4.375 -18.75,19.59375 c -2.14198,3.39059 -4.94313,6.32585 -8.21875,8.625 L 310.15625,470.5 c 0.42795,0.0123 0.85044,0.0312 1.28125,0.0312 4.52252,0 8.88028,-0.67391 13,-1.9375 l 27.625,-24.3437 c 2.53743,-5.59392 3.96875,-11.79199 3.96875,-18.3125 0,-1.1185 -0.0432,-2.21416 -0.125,-3.3125 z m -23.96875,1.8125 -21.15625,22.03125 c 0.21651,0.007 0.43819,0.0312 0.65625,0.0312 11.2918,0 20.5625,-9.2707 20.5625,-20.5625 0,-0.50267 -0.0264,-1.00598 -0.0625,-1.5 z m -49.9375,9.25 -10.875,11.25 c 1.3195,2.78316 2.90725,5.41037 4.75,7.84375 3.58439,-3.19327 7.09045,-6.31161 10.59375,-9.4375 -2.01328,-2.89091 -3.55479,-6.14093 -4.46875,-9.65625 z m -28.96875,8.15625 -15.0625,16.25 c 0.89171,2.02615 1.88698,4.00237 2.9375,5.9375 L 256,450.34375 c -1.19923,-2.73053 -2.17823,-5.57306 -2.96875,-8.5 z m 37.09375,5.8125 -9.75,10.1875 c 1.72261,1.67767 3.558,3.24018 5.53125,4.625 l 11,-9.78125 c -2.50066,-1.35325 -4.77053,-3.05825 -6.78125,-5.03125 z m 55.6875,6.625 -5.90625,5.9375 c 2.15744,-1.7947 4.11898,-3.7737 5.90625,-5.9375 z m -43.25,0.75 L 292,466.0625 c 2.68248,1.30697 5.52219,2.34322 8.46875,3.09375 L 316,456 c -1.4858,0.22051 -3.01241,0.34375 -4.5625,0.34375 -3.09446,0 -6.06813,-0.46509 -8.875,-1.3125 z m -43.125,2 L 245.46875,471.5 c 1.18665,1.71142 2.43742,3.35697 3.75,4.96875 5.19203,-4.61194 9.35653,-8.25762 14.6875,-13 -1.62108,-2.0511 -3.12103,-4.18195 -4.46875,-6.4375 z m 125.3125,1.28125 -41.21875,41.09375 c 18.33414,-8.06154 33.09908,-22.78798 41.21875,-41.09375 z m -115.4375,11.125 -13.53125,14.15625 c 1.02154,0.98665 2.08387,1.94301 3.15625,2.875 l 14.78125,-13.15625 c -1.52648,-1.21427 -3.00588,-2.52094 -4.40625,-3.875 z M 280.5,478 266.65625,492.4375 c 1.1683,0.78989 2.38306,1.52108 3.59375,2.25 l 16.125,-13.65625 C 284.36048,480.11848 282.38811,479.11941 280.5,478 z m 50.5625,5.1875 c -5.42136,1.84605 -11.18344,2.95199 -17.1875,3.1875 l -18.125,18.25 c 3.10911,0.62095 6.27472,1.03321 9.5,1.28125 0.0104,8e-4 0.0209,-7.9e-4 0.0312,0 l 25.7813,-22.71875 z m -34.40625,1.4375 -15.03125,15.75 c 1.56965,0.63206 3.16484,1.21642 4.78125,1.75 L 304.625,486.0625 c -2.72167,-0.30145 -5.37014,-0.79028 -7.96875,-1.4375 z m 48.46875,36.40625 c -1.72247,0.60698 -3.48553,1.14166 -5.25,1.65625 l -30.1875,28.65625 1.65625,1.625 c 0.0312,2e-5 0.0625,0 0.0937,0 0.0312,0 0.0625,2e-5 0.0937,0 l 33.59375,-31.9375 z m -65.90625,0.5 3.9375,3.84375 2.28125,-2 c -2.09912,-0.55489 -4.17661,-1.15988 -6.21875,-1.84375 z m 15.96875,3.90625 -5.90625,5.9375 2.8125,2.78125 9.5625,-7.875 c -2.18195,-0.20839 -4.33022,-0.49958 -6.46875,-0.84375 z m 30.59375,0.28125 c -3.1382,0.44235 -6.33647,0.75724 -9.5625,0.90625 l -15.75,15.71875 2.3125,2.25 23,-18.875 z"
       id="path3823"
       inkscape:connector-curvature="0" />
  </g>
</svg>
